<?xml version="1.0" encoding="UTF-8" standalone="no"?>
<svg width="2238px" height="1262px" viewBox="0 0 2238 1262" version="1.1" xmlns="http://www.w3.org/2000/svg" xmlns:xlink="http://www.w3.org/1999/xlink">
    <!-- Generator: Sketch 39.1 (31720) - http://www.bohemiancoding.com/sketch -->
    <title>Group</title>
    <desc>Created with Sketch.</desc>
    <defs>
        <rect id="path-1" x="0" y="0" width="2238" height="1262"></rect>
        <mask id="mask-2" maskContentUnits="userSpaceOnUse" maskUnits="objectBoundingBox" x="0" y="0" width="2238" height="1262" fill="white">
            <use xlink:href="#path-1"></use>
        </mask>
        <mask id="mask-4" maskContentUnits="userSpaceOnUse" maskUnits="objectBoundingBox" x="0" y="0" width="2238" height="1262" fill="white">
            <use xlink:href="#path-1"></use>
        </mask>
    </defs>
    <g id="Page-1" stroke="none" stroke-width="1" fill="none" fill-rule="evenodd" opacity="0.246268657">
        <g id="Group">
            <mask id="mask-3" fill="white">
                <use xlink:href="#path-1"></use>
            </mask>
            <g id="Rectangle" stroke="#979797" mask="url(#mask-2)" stroke-width="2" fill="#D8D8D8">
                <use mask="url(#mask-4)" xlink:href="#path-1"></use>
            </g>
            <g id="pattern" mask="url(#mask-3)" stroke-width="1.51">
                <g transform="translate(-41.000000, -176.000000)" id="Shape">
                    <polygon stroke="#4D4D4D" fill="#4D4D4D" points="2255 772 2199 879 2270 965"></polygon>
                    <polygon stroke="#191919" fill="#191919" points="2210 1510 2254 1594 2283 1381"></polygon>
                    <polygon stroke="#1C1C1C" fill="#1C1C1C" points="2204 1486 2210 1510 2283 1381"></polygon>
                    <polygon stroke="#797979" fill="#797979" points="2210 208 2243 245 2314 81"></polygon>
                    <polygon stroke="#777777" fill="#777777" points="2243 245 2265 316 2314 81"></polygon>
                    <polygon stroke="#2A2A2A" fill="#2A2A2A" points="2113 1233 2283 1381 2342 1331"></polygon>
                    <polygon stroke="#333333" fill="#333333" points="2144 1169 2113 1233 2342 1331"></polygon>
                    <polygon stroke="#353535" fill="#353535" points="2279 1076 2144 1169 2342 1331"></polygon>
                    <polygon stroke="#1B1B1B" fill="#1B1B1B" points="2283 1381 2254 1594 2342 1331"></polygon>
                    <polygon stroke="#383838" fill="#383838" points="2270 965 2279 1076 2342 1331"></polygon>
                    <polygon stroke="#6B6B6B" fill="#6B6B6B" points="2265 316 2185 523 2343 495"></polygon>
                    <polygon stroke="#666666" fill="#666666" points="2185 523 2256 609 2343 495"></polygon>
                    <polygon stroke="#555555" fill="#555555" points="2255 772 2270 965 2343 495"></polygon>
                    <polygon stroke="#5F5F5F" fill="#5F5F5F" points="2256 609 2255 772 2343 495"></polygon>
                    <polygon stroke="#717171" fill="#717171" points="2314 81 2265 316 2343 495"></polygon>
                    <polygon stroke="#454545" fill="#454545" points="2270 965 2342 1331 2343 495"></polygon>
                    <polygon stroke="#727272" fill="#727272" points="2094 409 2185 523 2265 316"></polygon>
                    <polygon stroke="#7E7E7E" fill="#7E7E7E" points="2101 112 2210 208 2314 81"></polygon>
                    <polygon stroke="#606060" fill="#606060" points="2178 610 2255 772 2256 609"></polygon>
                    <polygon stroke="#434343" fill="#434343" points="2270 965 2132 1014 2279 1076"></polygon>
                    <polygon stroke="#272727" fill="#272727" points="2113 1233 2204 1486 2283 1381"></polygon>
                    <polygon stroke="#404040" fill="#404040" points="2132 1014 2144 1169 2279 1076"></polygon>
                    <polygon stroke="#676767" fill="#676767" points="2185 523 2178 610 2256 609"></polygon>
                    <polygon stroke="#494949" fill="#494949" points="2199 879 2132 1014 2270 965"></polygon>
                    <polygon stroke="#616161" fill="#616161" points="2178 610 2050 677 2255 772"></polygon>
                    <polygon stroke="#767676" fill="#767676" points="2243 245 2094 409 2265 316"></polygon>
                    <polygon stroke="#797979" fill="#797979" points="2210 208 2094 409 2243 245"></polygon>
                    <polygon stroke="#585858" fill="#585858" points="2012 763 2199 879 2255 772"></polygon>
                    <polygon stroke="#606060" fill="#606060" points="2050 677 2012 763 2255 772"></polygon>
                    <polygon stroke="#252525" fill="#252525" points="2113 1233 2081 1522 2204 1486"></polygon>
                    <polygon stroke="#838383" fill="#838383" points="2011 158 1965 342 2094 409"></polygon>
                    <polygon stroke="#2F2F2F" fill="#2F2F2F" points="1944 1348 2081 1522 2113 1233"></polygon>
                    <polygon stroke="#838383" fill="#838383" points="2101 112 2011 158 2210 208"></polygon>
                    <polygon stroke="#7F7F7F" fill="#7F7F7F" points="2011 158 2094 409 2210 208"></polygon>
                    <polygon stroke="#4E4E4E" fill="#4E4E4E" points="1996 974 2132 1014 2199 879"></polygon>
                    <polygon stroke="#585858" fill="#585858" points="2012 763 1996 974 2199 879"></polygon>
                    <polygon stroke="#6D6D6D" fill="#6D6D6D" points="2018 562 2178 610 2185 523"></polygon>
                    <polygon stroke="#727272" fill="#727272" points="2094 409 2018 562 2185 523"></polygon>
                    <polygon stroke="#444444" fill="#444444" points="2132 1014 1994 1131 2144 1169"></polygon>
                    <polygon stroke="#6C6C6C" fill="#6C6C6C" points="2018 562 2050 677 2178 610"></polygon>
                    <polygon stroke="#2B2B2B" fill="#2B2B2B" points="1944 1348 1946 1482 2081 1522"></polygon>
                    <polygon stroke="#3F3F3F" fill="#3F3F3F" points="1994 1131 2113 1233 2144 1169"></polygon>
                    <polygon stroke="#4D4D4D" fill="#4D4D4D" points="1996 974 1994 1131 2132 1014"></polygon>
                    <polygon stroke="#404040" fill="#404040" points="1994 1131 1944 1348 2113 1233"></polygon>
                    <polygon stroke="#616161" fill="#616161" points="1925 794 1996 974 2012 763"></polygon>
                    <polygon stroke="#7A7A7A" fill="#7A7A7A" points="1928 512 2018 562 2094 409"></polygon>
                    <polygon stroke="#808080" fill="#808080" points="1965 342 1928 512 2094 409"></polygon>
                    <polygon stroke="#434343" fill="#434343" points="1876 1301 1944 1348 1994 1131"></polygon>
                    <polygon stroke="#8A8A8A" fill="#8A8A8A" points="1914 329 1965 342 2011 158"></polygon>
                    <polygon stroke="#747474" fill="#747474" points="2018 562 1785 705 2050 677"></polygon>
                    <polygon stroke="#707070" fill="#707070" points="1785 705 1925 794 2050 677"></polygon>
                    <polygon stroke="#696969" fill="#696969" points="1925 794 2012 763 2050 677"></polygon>
                    <polygon stroke="#525252" fill="#525252" points="1804 1124 1994 1131 1996 974"></polygon>
                    <polygon stroke="#5B5B5B" fill="#5B5B5B" points="1861 934 1804 1124 1996 974"></polygon>
                    <polygon stroke="#616161" fill="#616161" points="1925 794 1861 934 1996 974"></polygon>
                    <polygon stroke="#909090" fill="#909090" points="1963 116 1842 256 2011 158"></polygon>
                    <polygon stroke="#8E8E8E" fill="#8E8E8E" points="1842 256 1914 329 2011 158"></polygon>
                    <polygon stroke="#7C7C7C" fill="#7C7C7C" points="1928 512 1785 705 2018 562"></polygon>
                    <polygon stroke="#868686" fill="#868686" points="1914 329 1928 512 1965 342"></polygon>
                    <polygon stroke="#4D4D4D" fill="#4D4D4D" points="1804 1124 1876 1301 1994 1131"></polygon>
                    <polygon stroke="#343434" fill="#343434" points="1944 1348 1801 1457 1946 1482"></polygon>
                    <polygon stroke="#959595" fill="#959595" points="1892 70 1842 256 1963 116"></polygon>
                    <polygon stroke="#8F8F8F" fill="#8F8F8F" points="1914 329 1636 380 1928 512"></polygon>
                    <polygon stroke="#3C3C3C" fill="#3C3C3C" points="1876 1301 1801 1457 1944 1348"></polygon>
                    <polygon stroke="#6D6D6D" fill="#6D6D6D" points="1715 799 1861 934 1925 794"></polygon>
                    <polygon stroke="#808080" fill="#808080" points="1748 697 1785 705 1928 512"></polygon>
                    <polygon stroke="#898989" fill="#898989" points="1635 509 1748 697 1928 512"></polygon>
                    <polygon stroke="#929292" fill="#929292" points="1636 380 1635 509 1928 512"></polygon>
                    <polygon stroke="#969696" fill="#969696" points="1842 256 1636 380 1914 329"></polygon>
                    <polygon stroke="#767676" fill="#767676" points="1785 705 1715 799 1925 794"></polygon>
                    <polygon stroke="#9B9B9B" fill="#9B9B9B" points="1703 187 1842 256 1892 70"></polygon>
                    <polygon stroke="#434343" fill="#434343" points="1715 1313 1801 1457 1876 1301"></polygon>
                    <polygon stroke="#545454" fill="#545454" points="1804 1124 1727 1156 1876 1301"></polygon>
                    <polygon stroke="#505050" fill="#505050" points="1727 1156 1715 1313 1876 1301"></polygon>
                    <polygon stroke="#A2A2A2" fill="#A2A2A2" points="1658 54 1703 187 1892 70"></polygon>
                    <polygon stroke="#666666" fill="#666666" points="1654 925 1804 1124 1861 934"></polygon>
                    <polygon stroke="#707070" fill="#707070" points="1715 799 1654 925 1861 934"></polygon>
                    <polygon stroke="#626262" fill="#626262" points="1654 925 1727 1156 1804 1124"></polygon>
                    <polygon stroke="#9D9D9D" fill="#9D9D9D" points="1703 187 1636 380 1842 256"></polygon>
                    <polygon stroke="#696969" fill="#696969" points="1654 925 1588 1032 1727 1156"></polygon>
                    <polygon stroke="#7D7D7D" fill="#7D7D7D" points="1748 697 1715 799 1785 705"></polygon>
                    <polygon stroke="#444444" fill="#444444" points="1715 1313 1668 1383 1801 1457"></polygon>
                    <polygon stroke="#3D3D3D" fill="#3D3D3D" points="1668 1383 1719 1528 1801 1457"></polygon>
                    <polygon stroke="#595959" fill="#595959" points="1512 1243 1715 1313 1727 1156"></polygon>
                    <polygon stroke="#828282" fill="#828282" points="1569 661 1715 799 1748 697"></polygon>
                    <polygon stroke="#8D8D8D" fill="#8D8D8D" points="1635 509 1569 661 1748 697"></polygon>
                    <polygon stroke="#999999" fill="#999999" points="1607 483 1635 509 1636 380"></polygon>
                    <polygon stroke="#A3A3A3" fill="#A3A3A3" points="1563 198 1636 380 1703 187"></polygon>
                    <polygon stroke="#848484" fill="#848484" points="1569 661 1534 769 1715 799"></polygon>
                    <polygon stroke="#656565" fill="#656565" points="1588 1032 1513 1151 1727 1156"></polygon>
                    <polygon stroke="#616161" fill="#616161" points="1513 1151 1512 1243 1727 1156"></polygon>
                    <polygon stroke="#454545" fill="#454545" points="1525 1355 1495 1625 1668 1383"></polygon>
                    <polygon stroke="#7B7B7B" fill="#7B7B7B" points="1534 769 1654 925 1715 799"></polygon>
                    <polygon stroke="#3D3D3D" fill="#3D3D3D" points="1668 1383 1495 1625 1719 1528"></polygon>
                    <polygon stroke="#A7A7A7" fill="#A7A7A7" points="1658 54 1563 198 1703 187"></polygon>
                    <polygon stroke="#4D4D4D" fill="#4D4D4D" points="1525 1355 1668 1383 1715 1313"></polygon>
                    <polygon stroke="#555555" fill="#555555" points="1512 1243 1525 1355 1715 1313"></polygon>
                    <polygon stroke="#484848" fill="#484848" points="1401 1454 1495 1625 1525 1355"></polygon>
                    <polygon stroke="#ADADAD" fill="#ADADAD" points="1520 13 1563 198 1658 54"></polygon>
                    <polygon stroke="#A5A5A5" fill="#A5A5A5" points="1563 198 1475 371 1636 380"></polygon>
                    <polygon stroke="#9D9D9D" fill="#9D9D9D" points="1559 418 1607 483 1636 380"></polygon>
                    <polygon stroke="#A1A1A1" fill="#A1A1A1" points="1475 371 1559 418 1636 380"></polygon>
                    <polygon stroke="#737373" fill="#737373" points="1424 986 1588 1032 1654 925"></polygon>
                    <polygon stroke="#7B7B7B" fill="#7B7B7B" points="1534 769 1424 986 1654 925"></polygon>
                    <polygon stroke="#949494" fill="#949494" points="1607 483 1569 661 1635 509"></polygon>
                    <polygon stroke="#ACACAC" fill="#ACACAC" points="1453 219 1475 371 1563 198"></polygon>
                    <polygon stroke="#989898" fill="#989898" points="1380 560 1569 661 1607 483"></polygon>
                    <polygon stroke="#9E9E9E" fill="#9E9E9E" points="1559 418 1380 560 1607 483"></polygon>
                    <polygon stroke="#838383" fill="#838383" points="1357 845 1424 986 1534 769"></polygon>
                    <polygon stroke="#B0B0B0" fill="#B0B0B0" points="1520 13 1453 219 1563 198"></polygon>
                    <polygon stroke="#6B6B6B" fill="#6B6B6B" points="1447 1127 1513 1151 1588 1032"></polygon>
                    <polygon stroke="#717171" fill="#717171" points="1424 986 1447 1127 1588 1032"></polygon>
                    <polygon stroke="#A3A3A3" fill="#A3A3A3" points="1475 371 1380 560 1559 418"></polygon>
                    <polygon stroke="#8D8D8D" fill="#8D8D8D" points="1424 698 1534 769 1569 661"></polygon>
                    <polygon stroke="#979797" fill="#979797" points="1380 560 1424 698 1569 661"></polygon>
                    <polygon stroke="#B5B5B5" fill="#B5B5B5" points="1339 135 1453 219 1520 13"></polygon>
                    <polygon stroke="#5A5A5A" fill="#5A5A5A" points="1512 1243 1417 1316 1525 1355"></polygon>
                    <polygon stroke="#8C8C8C" fill="#8C8C8C" points="1424 698 1357 845 1534 769"></polygon>
                    <polygon stroke="#676767" fill="#676767" points="1447 1127 1512 1243 1513 1151"></polygon>
                    <polygon stroke="#545454" fill="#545454" points="1417 1316 1401 1454 1525 1355"></polygon>
                    <polygon stroke="#646464" fill="#646464" points="1447 1127 1417 1316 1512 1243"></polygon>
                    <polygon stroke="#A9A9A9" fill="#A9A9A9" points="1286 383 1380 560 1475 371"></polygon>
                    <polygon stroke="#686868" fill="#686868" points="1258 1275 1417 1316 1447 1127"></polygon>
                    <polygon stroke="#AEAEAE" fill="#AEAEAE" points="1453 219 1286 383 1475 371"></polygon>
                    <polygon stroke="#777777" fill="#777777" points="1424 986 1207 1092 1447 1127"></polygon>
                    <polygon stroke="#B5B5B5" fill="#B5B5B5" points="1339 135 1286 383 1453 219"></polygon>
                    <polygon stroke="#727272" fill="#727272" points="1207 1092 1258 1275 1447 1127"></polygon>
                    <polygon stroke="#BABABA" fill="#BABABA" points="1220 171 1286 383 1339 135"></polygon>
                    <polygon stroke="#AAAAAA" fill="#AAAAAA" points="1286 383 1262 543 1380 560"></polygon>
                    <polygon stroke="#5C5C5C" fill="#5C5C5C" points="1258 1275 1401 1454 1417 1316"></polygon>
                    <polygon stroke="#9E9E9E" fill="#9E9E9E" points="1380 560 1210 680 1424 698"></polygon>
                    <polygon stroke="#959595" fill="#959595" points="1210 680 1357 845 1424 698"></polygon>
                    <polygon stroke="#858585" fill="#858585" points="1357 845 1248 908 1424 986"></polygon>
                    <polygon stroke="#818181" fill="#818181" points="1248 908 1207 1092 1424 986"></polygon>
                    <polygon stroke="#585858" fill="#585858" points="1258 1275 1222 1491 1401 1454"></polygon>
                    <polygon stroke="#969696" fill="#969696" points="1210 680 1191 797 1357 845"></polygon>
                    <polygon stroke="#A5A5A5" fill="#A5A5A5" points="1262 543 1210 680 1380 560"></polygon>
                    <polygon stroke="#8E8E8E" fill="#8E8E8E" points="1191 797 1248 908 1357 845"></polygon>
                    <polygon stroke="#636363" fill="#636363" points="1157 1309 1222 1491 1258 1275"></polygon>
                    <polygon stroke="#616161" fill="#616161" points="1157 1309 1115 1386 1222 1491"></polygon>
                    <polygon stroke="#878787" fill="#878787" points="1094 975 1207 1092 1248 908"></polygon>
                    <polygon stroke="#777777" fill="#777777" points="1207 1092 1148 1146 1258 1275"></polygon>
                    <polygon stroke="#B3B3B3" fill="#B3B3B3" points="1036 383 1128 591 1262 543"></polygon>
                    <polygon stroke="#A9A9A9" fill="#A9A9A9" points="1128 591 1210 680 1262 543"></polygon>
                    <polygon stroke="#BFBFBF" fill="#BFBFBF" points="1220 171 1096 184 1286 383"></polygon>
                    <polygon stroke="#BFBFBF" fill="#BFBFBF" points="1096 184 1036 383 1286 383"></polygon>
                    <polygon stroke="#B5B5B5" fill="#B5B5B5" points="1036 383 1262 543 1286 383"></polygon>
                    <polygon stroke="#727272" fill="#727272" points="1148 1146 1157 1309 1258 1275"></polygon>
                    <polygon stroke="#909090" fill="#909090" points="1191 797 1094 975 1248 908"></polygon>
                    <polygon stroke="#C7C7C7" fill="#C7C7C7" points="1015 239 1036 383 1096 184"></polygon>
                    <polygon stroke="#979797" fill="#979797" points="1101 777 1094 975 1191 797"></polygon>
                    <polygon stroke="#A0A0A0" fill="#A0A0A0" points="1108 710 1191 797 1210 680"></polygon>
                    <polygon stroke="#C5C5C5" fill="#C5C5C5" points="1162 142 1096 184 1220 171"></polygon>
                    <polygon stroke="#585858" fill="#585858" points="1115 1386 1191 1531 1222 1491"></polygon>
                    <polygon stroke="#9F9F9F" fill="#9F9F9F" points="1108 710 1101 777 1191 797"></polygon>
                    <polygon stroke="#838383" fill="#838383" points="1094 975 1148 1146 1207 1092"></polygon>
                    <polygon stroke="#A7A7A7" fill="#A7A7A7" points="1128 591 1108 710 1210 680"></polygon>
                    <polygon stroke="#CECECE" fill="#CECECE" points="900 59 1096 184 1162 142"></polygon>
                    <polygon stroke="#5B5B5B" fill="#5B5B5B" points="1115 1386 981 1559 1191 1531"></polygon>
                    <polygon stroke="#8A8A8A" fill="#8A8A8A" points="1094 975 1012 1015 1148 1146"></polygon>
                    <polygon stroke="#7C7C7C" fill="#7C7C7C" points="1148 1146 989 1128 1157 1309"></polygon>
                    <polygon stroke="#636363" fill="#636363" points="1016 1381 981 1559 1115 1386"></polygon>
                    <polygon stroke="#878787" fill="#878787" points="1012 1015 989 1128 1148 1146"></polygon>
                    <polygon stroke="#717171" fill="#717171" points="926 1280 1016 1381 1157 1309"></polygon>
                    <polygon stroke="#7C7C7C" fill="#7C7C7C" points="989 1128 926 1280 1157 1309"></polygon>
                    <polygon stroke="#BDBDBD" fill="#BDBDBD" points="1036 383 913 463 1128 591"></polygon>
                    <polygon stroke="#6A6A6A" fill="#6A6A6A" points="1016 1381 1115 1386 1157 1309"></polygon>
                    <polygon stroke="#ACACAC" fill="#ACACAC" points="1003 663 1108 710 1128 591"></polygon>
                    <polygon stroke="#999999" fill="#999999" points="912 775 1012 1015 1094 975"></polygon>
                    <polygon stroke="#9E9E9E" fill="#9E9E9E" points="912 775 1094 975 1101 777"></polygon>
                    <polygon stroke="#B7B7B7" fill="#B7B7B7" points="913 463 1003 663 1128 591"></polygon>
                    <polygon stroke="#CFCFCF" fill="#CFCFCF" points="900 59 1015 239 1096 184"></polygon>
                    <polygon stroke="#A7A7A7" fill="#A7A7A7" points="1003 663 1101 777 1108 710"></polygon>
                    <polygon stroke="#A9A9A9" fill="#A9A9A9" points="1003 663 912 775 1101 777"></polygon>
                    <polygon stroke="#858585" fill="#858585" points="880 1224 926 1280 989 1128"></polygon>
                    <polygon stroke="#A3A3A3" fill="#A3A3A3" points="912 775 869 802 1012 1015"></polygon>
                    <polygon stroke="#CDCDCD" fill="#CDCDCD" points="832 318 914 418 1015 239"></polygon>
                    <polygon stroke="#C7C7C7" fill="#C7C7C7" points="1015 239 914 418 1036 383"></polygon>
                    <polygon stroke="#C6C6C6" fill="#C6C6C6" points="914 418 913 463 1036 383"></polygon>
                    <polygon stroke="#BCBCBC" fill="#BCBCBC" points="913 463 821 671 1003 663"></polygon>
                    <polygon stroke="#9F9F9F" fill="#9F9F9F" points="869 802 749 1028 1012 1015"></polygon>
                    <polygon stroke="#D7D7D7" fill="#D7D7D7" points="900 59 811 123 1015 239"></polygon>
                    <polygon stroke="#D5D5D5" fill="#D5D5D5" points="811 123 832 318 1015 239"></polygon>
                    <polygon stroke="#787878" fill="#787878" points="926 1280 734 1355 1016 1381"></polygon>
                    <polygon stroke="#6C6C6C" fill="#6C6C6C" points="734 1355 866 1588 1016 1381"></polygon>
                    <polygon stroke="#626262" fill="#626262" points="866 1588 981 1559 1016 1381"></polygon>
                    <polygon stroke="#939393" fill="#939393" points="749 1028 989 1128 1012 1015"></polygon>
                    <polygon stroke="#B3B3B3" fill="#B3B3B3" points="821 671 912 775 1003 663"></polygon>
                    <polygon stroke="#6D6D6D" fill="#6D6D6D" points="734 1355 720 1513 866 1588"></polygon>
                    <polygon stroke="#8F8F8F" fill="#8F8F8F" points="749 1028 880 1224 989 1128"></polygon>
                    <polygon stroke="#DADADA" fill="#DADADA" points="811 123 744 209 832 318"></polygon>
                    <polygon stroke="#919191" fill="#919191" points="749 1028 735 1196 880 1224"></polygon>
                    <polygon stroke="#B1B1B1" fill="#B1B1B1" points="821 671 869 802 912 775"></polygon>
                    <polygon stroke="#C5C5C5" fill="#C5C5C5" points="748 449 821 671 913 463"></polygon>
                    <polygon stroke="#818181" fill="#818181" points="880 1224 734 1355 926 1280"></polygon>
                    <polygon stroke="#C8C8C8" fill="#C8C8C8" points="748 449 690 512 821 671"></polygon>
                    <polygon stroke="#CACACA" fill="#CACACA" points="748 449 913 463 914 418"></polygon>
                    <polygon stroke="#CECECE" fill="#CECECE" points="832 318 748 449 914 418"></polygon>
                    <polygon stroke="#A8A8A8" fill="#A8A8A8" points="640 875 749 1028 869 802"></polygon>
                    <polygon stroke="#878787" fill="#878787" points="735 1196 734 1355 880 1224"></polygon>
                    <polygon stroke="#B6B6B6" fill="#B6B6B6" points="821 671 679 736 869 802"></polygon>
                    <polygon stroke="#B2B2B2" fill="#B2B2B2" points="679 736 640 875 869 802"></polygon>
                    <polygon stroke="#858585" fill="#858585" points="710 1343 734 1355 735 1196"></polygon>
                    <polygon stroke="#999999" fill="#999999" points="713 1038 735 1196 749 1028"></polygon>
                    <polygon stroke="#D3D3D3" fill="#D3D3D3" points="631 401 748 449 832 318"></polygon>
                    <polygon stroke="#D7D7D7" fill="#D7D7D7" points="744 209 631 401 832 318"></polygon>
                    <polygon stroke="#DEDEDE" fill="#DEDEDE" points="720 140 744 209 811 123"></polygon>
                    <polygon stroke="#C2C2C2" fill="#C2C2C2" points="690 512 679 736 821 671"></polygon>
                    <polygon stroke="#777777" fill="#777777" points="656 1393 720 1513 734 1355"></polygon>
                    <polygon stroke="#8B8B8B" fill="#8B8B8B" points="570 1256 710 1343 735 1196"></polygon>
                    <polygon stroke="#9A9A9A" fill="#9A9A9A" points="713 1038 612 1065 735 1196"></polygon>
                    <polygon stroke="#DCDCDC" fill="#DCDCDC" points="626 212 631 401 744 209"></polygon>
                    <polygon stroke="#A4A4A4" fill="#A4A4A4" points="640 875 713 1038 749 1028"></polygon>
                    <polygon stroke="#7E7E7E" fill="#7E7E7E" points="710 1343 656 1393 734 1355"></polygon>
                    <polygon stroke="#D1D1D1" fill="#D1D1D1" points="631 401 690 512 748 449"></polygon>
                    <polygon stroke="#DFDFDF" fill="#DFDFDF" points="720 140 626 212 744 209"></polygon>
                    <polygon stroke="#C5C5C5" fill="#C5C5C5" points="495 728 679 736 690 512"></polygon>
                    <polygon stroke="#A4A4A4" fill="#A4A4A4" points="640 875 612 1065 713 1038"></polygon>
                    <polygon stroke="#969696" fill="#969696" points="612 1065 570 1256 735 1196"></polygon>
                    <polygon stroke="#CECECE" fill="#CECECE" points="571 454 495 728 690 512"></polygon>
                    <polygon stroke="#E4E4E4" fill="#E4E4E4" points="555 56 626 212 720 140"></polygon>
                    <polygon stroke="#737373" fill="#737373" points="656 1393 475 1573 720 1513"></polygon>
                    <polygon stroke="#A8A8A8" fill="#A8A8A8" points="538 1017 612 1065 640 875"></polygon>
                    <polygon stroke="#777777" fill="#777777" points="454 1485 475 1573 656 1393"></polygon>
                    <polygon stroke="#848484" fill="#848484" points="570 1256 656 1393 710 1343"></polygon>
                    <polygon stroke="#DFDFDF" fill="#DFDFDF" points="626 212 491 290 631 401"></polygon>
                    <polygon stroke="#BABABA" fill="#BABABA" points="495 728 640 875 679 736"></polygon>
                    <polygon stroke="#D4D4D4" fill="#D4D4D4" points="631 401 571 454 690 512"></polygon>
                    <polygon stroke="#D2D2D2" fill="#D2D2D2" points="511 447 495 728 571 454"></polygon>
                    <polygon stroke="#9C9C9C" fill="#9C9C9C" points="526 1071 570 1256 612 1065"></polygon>
                    <polygon stroke="#B9B9B9" fill="#B9B9B9" points="495 728 474 873 640 875"></polygon>
                    <polygon stroke="#828282" fill="#828282" points="570 1256 454 1485 656 1393"></polygon>
                    <polygon stroke="#AFAFAF" fill="#AFAFAF" points="474 873 538 1017 640 875"></polygon>
                    <polygon stroke="#E6E6E6" fill="#E6E6E6" points="555 56 491 290 626 212"></polygon>
                    <polygon stroke="#D8D8D8" fill="#D8D8D8" points="511 447 571 454 631 401"></polygon>
                    <polygon stroke="#DCDCDC" fill="#DCDCDC" points="491 290 511 447 631 401"></polygon>
                    <polygon stroke="#EAEAEA" fill="#EAEAEA" points="378 116 491 290 555 56"></polygon>
                    <polygon stroke="#888888" fill="#888888" points="352 1317 454 1485 570 1256"></polygon>
                    <polygon stroke="#A4A4A4" fill="#A4A4A4" points="538 1017 526 1071 612 1065"></polygon>
                    <polygon stroke="#D3D3D3" fill="#D3D3D3" points="337 478 293 637 495 728"></polygon>
                    <polygon stroke="#D4D4D4" fill="#D4D4D4" points="337 478 495 728 511 447"></polygon>
                    <polygon stroke="#989898" fill="#989898" points="526 1071 352 1317 570 1256"></polygon>
                    <polygon stroke="#9F9F9F" fill="#9F9F9F" points="272 1128 352 1317 526 1071"></polygon>
                    <polygon stroke="#EAEAEA" fill="#EAEAEA" points="378 116 366 258 491 290"></polygon>
                    <polygon stroke="#A7A7A7" fill="#A7A7A7" points="312 1053 272 1128 526 1071"></polygon>
                    <polygon stroke="#A9A9A9" fill="#A9A9A9" points="334 1011 526 1071 538 1017"></polygon>
                    <polygon stroke="#AFAFAF" fill="#AFAFAF" points="474 873 334 1011 538 1017"></polygon>
                    <polygon stroke="#9E9E9E" fill="#9E9E9E" points="272 1128 262 1222 352 1317"></polygon>
                    <polygon stroke="#DFDFDF" fill="#DFDFDF" points="491 290 339 435 511 447"></polygon>
                    <polygon stroke="#ABABAB" fill="#ABABAB" points="334 1011 312 1053 526 1071"></polygon>
                    <polygon stroke="#858585" fill="#858585" points="352 1317 322 1391 454 1485"></polygon>
                    <polygon stroke="#B6B6B6" fill="#B6B6B6" points="370 871 334 1011 474 873"></polygon>
                    <polygon stroke="#E4E4E4" fill="#E4E4E4" points="366 258 339 435 491 290"></polygon>
                    <polygon stroke="#BCBCBC" fill="#BCBCBC" points="370 871 474 873 495 728"></polygon>
                    <polygon stroke="#DDDDDD" fill="#DDDDDD" points="339 435 337 478 511 447"></polygon>
                    <polygon stroke="#C0C0C0" fill="#C0C0C0" points="267 817 370 871 495 728"></polygon>
                    <polygon stroke="#C9C9C9" fill="#C9C9C9" points="293 637 267 817 495 728"></polygon>
                    <polygon stroke="#7B7B7B" fill="#7B7B7B" points="322 1391 313 1617 454 1485"></polygon>
                    <polygon stroke="#CDCDCD" fill="#CDCDCD" points="198 714 267 817 293 637"></polygon>
                    <polygon stroke="#DCDCDC" fill="#DCDCDC" points="229 502 293 637 337 478"></polygon>
                    <polygon stroke="#E8E8E8" fill="#E8E8E8" points="264 221 181 405 339 435"></polygon>
                    <polygon stroke="#E9E9E9" fill="#E9E9E9" points="264 221 339 435 366 258"></polygon>
                    <polygon stroke="#B6B6B6" fill="#B6B6B6" points="266 933 334 1011 370 871"></polygon>
                    <polygon stroke="#EEEEEE" fill="#EEEEEE" points="264 221 366 258 378 116"></polygon>
                    <polygon stroke="#F4F4F4" fill="#F4F4F4" points="175 0 264 221 378 116"></polygon>
                    <polygon stroke="#797979" fill="#797979" points="218 1648 313 1617 322 1391"></polygon>
                    <polygon stroke="#BDBDBD" fill="#BDBDBD" points="267 817 266 933 370 871"></polygon>
                    <polygon stroke="#808080" fill="#808080" points="147 1359 61 1511 218 1648"></polygon>
                    <polygon stroke="#828282" fill="#828282" points="147 1359 218 1648 322 1391"></polygon>
                    <polygon stroke="#939393" fill="#939393" points="262 1222 322 1391 352 1317"></polygon>
                    <polygon stroke="#939393" fill="#939393" points="262 1222 147 1359 322 1391"></polygon>
                    <polygon stroke="#E0E0E0" fill="#E0E0E0" points="229 502 337 478 339 435"></polygon>
                    <polygon stroke="#E3E3E3" fill="#E3E3E3" points="181 405 229 502 339 435"></polygon>
                    <polygon stroke="#B1B1B1" fill="#B1B1B1" points="266 933 312 1053 334 1011"></polygon>
                    <polygon stroke="#EBEBEB" fill="#EBEBEB" points="132 370 181 405 264 221"></polygon>
                    <polygon stroke="#B5B5B5" fill="#B5B5B5" points="266 933 109 971 312 1053"></polygon>
                    <polygon stroke="#AFAFAF" fill="#AFAFAF" points="109 971 272 1128 312 1053"></polygon>
                    <polygon stroke="#F7F7F7" fill="#F7F7F7" points="175 0 55 77 264 221"></polygon>
                    <polygon stroke="#D7D7D7" fill="#D7D7D7" points="229 502 198 714 293 637"></polygon>
                    <polygon stroke="#D8D8D8" fill="#D8D8D8" points="51 680 198 714 229 502"></polygon>
                    <polygon stroke="#9B9B9B" fill="#9B9B9B" points="129 1232 147 1359 262 1222"></polygon>
                    <polygon stroke="#BCBCBC" fill="#BCBCBC" points="109 971 266 933 267 817"></polygon>
                    <polygon stroke="#A9A9A9" fill="#A9A9A9" points="29 1066 129 1232 272 1128"></polygon>
                    <polygon stroke="#B1B1B1" fill="#B1B1B1" points="109 971 29 1066 272 1128"></polygon>
                    <polygon stroke="#A3A3A3" fill="#A3A3A3" points="129 1232 262 1222 272 1128"></polygon>
                    <polygon stroke="#CBCBCB" fill="#CBCBCB" points="198 714 27 750 267 817"></polygon>
                    <polygon stroke="#C3C3C3" fill="#C3C3C3" points="27 750 109 971 267 817"></polygon>
                    <polygon stroke="#EFEFEF" fill="#EFEFEF" points="0 291 132 370 264 221"></polygon>
                    <polygon stroke="#F5F5F5" fill="#F5F5F5" points="55 77 0 291 264 221"></polygon>
                    <polygon stroke="#E4E4E4" fill="#E4E4E4" points="181 405 66 449 229 502"></polygon>
                    <polygon stroke="#DFDFDF" fill="#DFDFDF" points="66 449 51 680 229 502"></polygon>
                    <polygon stroke="#D1D1D1" fill="#D1D1D1" points="51 680 27 750 198 714"></polygon>
                    <polygon stroke="#878787" fill="#878787" points="19 1464 61 1511 147 1359"></polygon>
                    <polygon stroke="#E8E8E8" fill="#E8E8E8" points="132 370 66 449 181 405"></polygon>
                    <polygon stroke="#929292" fill="#929292" points="129 1232 19 1464 147 1359"></polygon>
                    <polygon stroke="#ECECEC" fill="#ECECEC" points="0 291 66 449 132 370"></polygon>
                    <polygon stroke="#A0A0A0" fill="#A0A0A0" points="29 1066 19 1464 129 1232"></polygon>
                    <polygon stroke="#BEBEBE" fill="#BEBEBE" points="27 750 29 1066 109 971"></polygon>
                    <polygon stroke="#E0E0E0" fill="#E0E0E0" points="0 291 27 750 51 680"></polygon>
                    <polygon stroke="#E6E6E6" fill="#E6E6E6" points="0 291 51 680 66 449"></polygon>
                </g>
            </g>
        </g>
    </g>
</svg>